<svg width="2557" height="753" viewBox="0 0 2557 753" fill="none" xmlns="http://www.w3.org/2000/svg">
<path fill-rule="evenodd" clip-rule="evenodd" d="M109.91 0.345724L99.9823 0.345724C44.7639 0.345724 0.000485868 42.6675 0.000488281 94.874V106.683C6.44669 162.768 9.99995 224.157 9.99995 288.5C9.99995 352.843 6.4467 414.232 0.000509861 470.317L0.000510619 483.49C0.000510619 535.506 44.438 577.71 99.3786 578.017C161.842 569.67 231.73 565 305.5 565C379.271 565 449.159 569.67 511.622 578.017C566.562 577.71 611 535.507 611 483.49V461.369C605.187 407.726 602 349.437 602 288.499C602 227.561 605.187 169.272 611 115.63V94.8739C611 42.6674 566.237 0.345701 511.019 0.345703H501.091C441.343 7.83569 375.152 11.9995 305.5 11.9995C235.848 11.9995 169.658 7.83569 109.91 0.345724ZM99.0005 289C99.0005 184.618 191.454 99.9995 305.501 99.9995C419.547 99.9995 512.001 184.618 512 289C512 393.381 419.547 478 305.5 478C191.454 478 99.0004 393.381 99.0005 289ZM99.0005 695C99.0005 662.967 191.454 637 305.5 637C419.547 637 512 662.967 512 695C512 727.032 419.547 753 305.5 753C191.454 753 99.0005 727.032 99.0005 695ZM1602.29 83.8389V354.697L1740.9 184.286H1840.85L1741.23 299.47L1848.38 470.562H1742.41L1681.84 368.135L1593.25 470.562H1509.37V83.8389H1602.29ZM1930.42 459.513C1957.54 472.237 1988.17 478.598 2022.33 478.598C2051.12 478.598 2077.91 474.915 2102.68 467.549C2127.8 460.183 2150.06 449.803 2169.48 436.41V375.639C2152.41 386.354 2133.15 394.725 2111.72 400.751C2090.3 406.443 2068.87 409.289 2047.44 409.289C2024 409.289 2004.08 405.774 1987.67 398.742C1971.6 391.711 1959.21 381.499 1950.51 368.106C1947.95 364.018 1945.79 359.666 1944.01 355.048H2177.01C2177.01 318.887 2170.49 287.413 2157.43 260.627C2144.37 233.841 2125.79 213.082 2101.68 198.35C2077.57 183.617 2048.78 176.251 2015.29 176.251C1982.48 176.251 1953.02 182.613 1926.9 195.336C1901.12 208.06 1880.86 225.638 1866.13 248.071C1851.4 270.504 1844.03 296.621 1844.03 326.42C1844.03 356.889 1851.73 383.508 1867.13 406.276C1882.54 429.044 1903.63 446.79 1930.42 459.513ZM1940.81 296.286C1942.39 290.385 1944.62 284.86 1947.49 279.712C1954.19 268.328 1963.4 259.455 1975.12 253.094C1986.83 246.732 2000.73 243.551 2016.8 243.551C2031.53 243.551 2044.26 246.564 2054.97 252.591C2065.69 258.283 2074.22 266.654 2080.59 277.703C2084.04 283.229 2086.74 289.424 2088.68 296.286H1940.81ZM2301.86 184.287H2208.95L2227.03 281.721V470.562H2320.45V332.447C2320.45 316.041 2323.46 301.978 2329.49 290.259C2335.85 278.205 2344.55 268.998 2355.6 262.636C2366.99 255.94 2380.38 252.591 2395.78 252.591C2417.55 252.591 2434.29 258.786 2446.01 271.174C2457.72 283.228 2463.58 301.141 2463.58 324.914V470.562H2557V310.851C2557 283.06 2551.81 259.12 2541.43 239.031C2531.39 218.941 2516.65 203.539 2497.23 192.825C2478.15 181.776 2454.88 176.251 2427.42 176.251C2404.32 176.251 2383.06 181.776 2363.64 192.825C2344.55 203.539 2328.48 219.276 2315.42 240.035C2314.28 241.899 2313.18 243.802 2312.11 245.744L2301.86 184.287ZM1186.86 459.513C1213.98 472.237 1245.62 478.598 1281.78 478.598C1317.94 478.598 1349.58 472.237 1376.7 459.513C1404.16 446.79 1425.42 429.212 1440.49 406.778C1455.55 384.01 1463.09 357.559 1463.09 327.425C1463.09 297.29 1455.55 271.007 1440.49 248.573C1425.42 225.805 1404.16 208.06 1376.7 195.336C1349.58 182.613 1317.94 176.251 1281.78 176.251C1245.95 176.251 1214.31 182.613 1186.86 195.336C1159.74 208.06 1138.64 225.805 1123.57 248.573C1108.51 271.007 1100.97 297.29 1100.97 327.425C1100.97 357.224 1108.51 383.508 1123.57 406.276C1138.64 429.044 1159.74 446.79 1186.86 459.513ZM1328.49 398.742C1315.76 405.104 1300.19 408.285 1281.78 408.285C1264.03 408.285 1248.63 405.104 1235.57 398.742C1222.52 392.046 1212.47 382.671 1205.44 370.617C1198.41 358.563 1194.89 344.166 1194.89 327.425C1194.89 310.683 1198.41 296.286 1205.44 284.232C1212.47 272.179 1222.52 262.971 1235.57 256.609C1248.63 249.913 1264.03 246.564 1281.78 246.564C1300.19 246.564 1315.76 249.913 1328.49 256.609C1341.55 262.971 1351.42 272.179 1358.12 284.232C1365.15 296.286 1368.67 310.683 1368.67 327.425C1368.67 344.166 1365.15 358.563 1358.12 370.617C1351.42 382.671 1341.55 392.046 1328.49 398.742ZM800 253.596V212.915L859.264 191.319L899.443 107.947H952.68V184.287H1076.23V253.596H952.68V348.017C952.68 369.446 957.033 384.513 965.738 393.218C974.444 401.589 990.013 405.774 1012.45 405.774C1026.84 405.774 1039.4 404.602 1050.11 402.259C1061.16 399.58 1071.54 396.064 1081.25 391.712V462.527C1071.21 466.545 1057.98 470.228 1041.58 473.576C1025.5 476.924 1008.76 478.599 991.353 478.599C960.883 478.599 935.772 473.744 916.017 464.034C896.597 454.324 882.2 440.763 872.824 423.352C863.784 405.607 859.264 384.848 859.264 361.075V253.596H800Z" fill="#0E1914"/>
</svg>
